<svg width="360" height="360" viewBox="0 0 360 360" fill="none" xmlns="http://www.w3.org/2000/svg">
<path fill-rule="evenodd" clip-rule="evenodd" d="M359.757 174.098C359.666 174.097 359.575 174.097 359.484 174.098C359.365 169.976 359.165 165.863 358.751 161.755C358.012 154.434 356.859 147.188 355.241 140.012C350.468 118.857 342.098 99.2321 330.212 81.0991C329.918 80.6521 329.565 80.2331 329.462 79.6831C336.288 72.8281 343.113 65.9731 350 59.0571C338.147 47.0871 326.346 35.1691 314.238 22.9431C313.71 23.6411 313.337 24.2681 312.839 24.7711C307.495 30.1611 302.135 35.5341 296.77 40.9021C296.354 41.3191 296.015 41.8351 295.436 42.0691C294.989 41.6731 294.553 41.2621 294.091 40.8841C282.527 31.3951 269.995 23.4341 256.458 17.0571C236.23 7.52814 214.941 2.05114 192.66 0.444138C185.504 -0.0718619 178.335 -0.137863 171.154 0.244137C162.785 0.688137 154.491 1.64114 146.26 3.19314C129.711 6.31214 113.932 11.6941 98.9167 19.3101C77.9687 29.9341 59.7987 44.1321 44.3697 61.8321C34.3387 73.3401 25.9057 85.9301 19.1147 99.6021C9.06366 119.838 3.00266 141.204 1.03466 163.73C0.86866 165.626 0.98166 167.553 0.50366 169.42C0.35766 169.424 0.21066 169.428 0.0636597 169.432" fill="white"/>
<path fill-rule="evenodd" clip-rule="evenodd" d="M0.0626526 189.893C0.208653 189.897 0.353653 189.902 0.498653 189.906C0.974653 191.834 0.873653 193.821 1.04365 195.775C1.80265 204.484 3.19765 213.086 5.24165 221.576C11.2307 246.458 22.0547 269.041 37.6646 289.319C39.5186 291.728 41.2897 294.217 43.5207 296.315C41.5187 298.692 39.1977 300.758 37.0157 302.96C35.6417 304.345 34.2527 305.714 32.9477 307.015C45.3777 319.445 57.6977 331.764 70.1077 344.173C74.3557 339.919 78.6967 335.571 83.0367 331.226C83.7327 331.278 84.2426 331.728 84.7926 332.073C91.8486 336.485 99.1747 340.389 106.773 343.784C128.092 353.309 150.449 358.375 173.758 359.246C180.87 359.511 187.98 359.292 195.081 358.686C203.668 357.956 212.162 356.684 220.549 354.708C256.748 346.18 287.446 328.2 312.591 300.832C331.815 279.909 345.228 255.689 352.956 228.342C356.198 216.868 358.239 205.182 359.127 193.283C359.336 190.476 359.263 187.668 359.492 184.869H359.623L359.755 184.868" fill="white"/>
<path fill-rule="evenodd" clip-rule="evenodd" d="M43.5217 296.315C41.2907 294.217 39.5207 291.728 37.6657 289.319C22.0547 269.041 11.2317 246.458 5.24267 221.576C3.19867 213.086 1.80367 204.484 1.04467 195.775C0.874667 193.821 0.579667 191.89 0.499667 189.906C0.424667 188.049 0.144667 186.312 0.0626667 184.509C-0.0783333 181.402 0.0626667 178.287 0.0626667 175.176C0.166667 173.254 0.405667 171.393 0.502667 169.42C0.597667 167.495 0.867667 165.625 1.03367 163.73C3.00167 141.204 9.06267 119.838 19.1137 99.6022C25.9047 85.9302 34.3377 73.3402 44.3687 61.8322C59.7977 44.1322 77.9677 29.9352 98.9147 19.3112C113.93 11.6952 129.709 6.31318 146.258 3.19418C154.489 1.64318 162.783 0.690182 171.152 0.245182C178.333 -0.135818 185.502 -0.0708193 192.658 0.445181C214.939 2.05118 236.228 7.52918 256.456 17.0582C269.993 23.4352 282.524 31.3962 294.089 40.8852C294.551 41.2632 294.986 41.6752 295.434 42.0702C293.106 44.6862 290.604 47.1292 288.034 49.5042C286.355 48.1572 284.707 46.7712 282.995 45.4672C253.825 23.2552 220.873 11.6852 184.265 10.5042C174.927 10.2032 165.63 10.8542 156.371 12.1342C146.102 13.5532 136.044 15.8762 126.235 19.2072C95.6977 29.5782 70.0547 47.1462 49.5287 72.0132C26.8157 99.5312 14.1817 131.207 11.2717 166.748C10.6517 174.321 10.6457 181.913 11.0937 189.511C11.5937 198.001 12.6737 206.404 14.4367 214.716C19.4217 238.208 28.9967 259.661 43.0917 279.106C45.5487 282.495 48.2487 285.691 50.7577 289.038C48.5127 291.629 46.0527 294.007 43.5217 296.315Z" fill="#27AECD"/>
<path fill-rule="evenodd" clip-rule="evenodd" d="M359.757 184.868L359.625 184.869H359.494C359.49 181.278 359.487 177.688 359.483 174.098C359.575 174.097 359.666 174.097 359.756 174.098C359.757 177.688 359.757 181.278 359.757 184.868Z" fill="#FDFEFE"/>
<path fill-rule="evenodd" clip-rule="evenodd" d="M0.50366 169.42C0.0636602 171.299 0.16766 173.254 0.0636597 175.176C0.0636597 173.261 0.0636597 171.347 0.0636597 169.432C0.20966 169.428 0.35666 169.424 0.50366 169.42Z" fill="#FDFEFE"/>
<path fill-rule="evenodd" clip-rule="evenodd" d="M0.0626526 184.508C0.225653 186.306 0.499653 189.905 0.499653 189.905C0.499653 189.905 0.208653 189.896 0.0626526 189.892C0.0626526 188.098 0.0626526 186.303 0.0626526 184.508Z" fill="#FDFEFE"/>
<path fill-rule="evenodd" clip-rule="evenodd" d="M43.5217 296.315C46.0527 294.006 48.5127 291.628 50.7577 289.037C50.9127 288.951 51.0987 288.896 51.2177 288.776C54.1187 285.863 57.0127 282.943 59.9077 280.026C60.8507 279.151 61.7997 278.278 62.6107 277.269C62.9257 276.998 63.2607 276.747 63.5547 276.454C71.9337 268.082 80.3087 259.706 88.6837 251.33C88.8107 251.203 88.9257 251.061 89.0667 250.952C89.6617 250.489 89.6967 250.057 89.1347 249.496C88.2897 248.651 87.4857 247.761 86.7117 246.85C70.8587 228.18 62.4507 206.465 60.4667 182.185C59.7537 173.461 60.1417 164.747 61.3967 156.069C63.1817 143.73 66.8117 131.956 72.2817 120.778C80.1247 104.751 91.0006 91.1001 104.918 79.9021C114.391 72.2801 124.788 66.2491 136.136 61.8751C144.986 58.4641 154.12 56.1851 163.555 55.2011C169.022 54.6311 174.505 54.1941 179.986 53.7551C189.075 53.0271 198.155 53.2001 207.205 54.2961C215.878 55.3461 224.419 57.1001 232.783 59.6201C243.82 62.9461 254.798 66.4491 264.404 73.0011C268.383 69.0871 272.343 65.1921 276.303 61.2971C277.22 60.4321 278.197 59.6251 278.926 58.5791C282.111 55.7041 285.111 52.6431 288.033 49.5051C290.603 47.1301 293.105 44.6871 295.433 42.0711C296.012 41.8361 296.351 41.3201 296.767 40.9041C302.132 35.5361 307.493 30.1631 312.836 24.7731C313.334 24.2711 313.707 23.6441 314.235 22.9451C326.342 35.1711 338.144 47.0891 349.997 59.0591C343.11 65.9751 336.285 72.8301 329.459 79.6851C326.774 82.2111 324.154 84.8021 321.648 87.5081C318.578 90.4511 315.563 93.4501 312.633 96.5321C311.58 97.3861 310.623 98.3361 309.779 99.3971C309.639 99.5061 309.487 99.6031 309.363 99.7271C302.381 106.703 295.409 113.691 288.403 120.644C287.721 121.321 287.688 121.757 288.226 122.559C293.142 129.886 297.109 137.715 300.074 146.016C306.992 165.384 308.768 185.254 305.46 205.548C302.791 221.917 296.96 237.102 287.954 251.039C276.063 269.441 260.352 283.609 240.693 293.319C225.394 300.875 209.204 304.74 192.113 304.685C189.367 304.676 186.641 304.271 183.91 304.119C180.332 303.92 176.739 303.934 173.155 303.723C165.863 303.29 158.634 302.39 151.466 300.997C141.768 299.113 132.341 296.315 123.227 292.492C122.435 292.16 121.966 292.228 121.359 292.842C115.258 299.008 109.127 305.143 103.005 311.285C101.886 312.219 100.879 313.266 99.9077 314.351C96.9037 317.373 93.8997 320.396 90.8957 323.418C88.1637 325.907 85.5967 328.563 83.0367 331.226C78.6957 335.573 74.3537 339.92 70.1067 344.174C57.6967 331.765 45.3767 319.445 32.9467 307.016C34.2527 305.715 35.6417 304.346 37.0147 302.961C39.1987 300.758 41.5187 298.692 43.5217 296.315ZM43.8227 309.645C44.2207 309.103 44.5177 308.571 44.9317 308.157C59.6857 293.385 74.4517 278.624 89.2127 263.859C90.1837 262.887 91.1787 261.945 91.9857 260.814C92.6577 259.872 93.6117 259.229 94.6937 258.816C97.5517 257.724 100.383 257.603 103.194 259.027C105.621 260.256 107.738 261.906 109.683 263.774C114.156 268.07 119.157 271.639 124.601 274.574C136.568 281.024 149.247 285.476 162.619 287.948C169.228 289.17 175.884 289.764 182.606 289.341C185.128 289.182 187.585 288.679 189.859 287.526C193.208 285.83 194.919 283.087 194.963 279.325C194.993 276.803 194.131 274.519 193.01 272.32C191.645 269.643 189.867 267.241 187.977 264.919C183.18 259.024 178.094 253.38 172.968 247.774C160.132 233.737 147.042 219.932 134.462 205.661C125.206 195.161 116.027 184.598 107.605 173.403C102.086 166.069 97.2297 158.346 93.8837 149.757C90.6537 141.464 88.9937 132.908 89.7477 123.968C89.8097 123.243 89.7557 122.508 89.7557 121.717C89.2597 121.988 89.1567 122.4 88.9677 122.747C82.5437 134.542 78.1747 147.067 75.8007 160.277C74.0277 170.139 73.3697 180.076 73.9417 190.098C74.4027 198.177 75.5467 206.144 77.4337 214.008C80.6627 227.464 85.9327 240.096 92.7877 252.09C93.2027 252.816 93.9087 253.56 93.9017 254.29C93.8937 255.051 92.8977 255.548 92.3107 256.135C75.7767 272.681 59.2357 289.219 42.6967 305.761C42.2457 306.211 41.8127 306.68 41.3987 307.112C42.1697 307.916 42.8647 308.642 43.8227 309.645ZM323.146 36.6071C322.76 37.0371 322.343 37.5481 321.878 38.0121C305.769 54.1291 289.654 70.2421 273.541 86.3561C272.356 87.5411 271.2 88.7541 269.984 89.9041C266.002 93.6691 262.657 94.6121 257.484 92.0751C255.119 90.9151 252.856 89.5851 250.674 88.1171C248.195 86.4491 245.769 84.7031 243.273 83.0621C228.754 73.5211 212.859 68.5781 195.427 68.7921C191.585 68.8391 187.787 69.1681 184.177 70.6251C178.754 72.8141 176.364 77.1231 177.291 82.9151C177.732 85.6721 178.805 88.1831 180.114 90.6111C182.11 94.3111 184.596 97.6721 187.287 100.885C194.168 109.102 201.677 116.735 209.22 124.331C222.618 137.827 236.402 150.936 249.751 164.483C257.753 172.602 265.048 181.258 271.18 190.89C277.201 200.349 281.236 210.52 282.678 221.674C282.851 223.015 283.02 224.356 283.223 225.947C288.495 214.684 293.375 194.707 292.875 175.056C292.174 147.458 283.375 122.552 267.78 99.7511C287.547 79.9841 307.335 60.1961 327.075 40.4561C325.831 39.2361 324.6 38.0301 323.146 36.6071ZM329.488 42.9471C309.839 62.5961 290.153 82.2821 270.407 102.028C273.81 105.01 277.079 108.365 279.93 111.543C299.72 91.7531 319.399 72.0741 339.156 52.3181C336.021 49.2791 332.718 46.0771 329.488 42.9471ZM94.6967 275.804C80.5117 289.989 66.4487 304.051 52.5777 317.922C56.4277 321.77 60.3807 325.721 64.0447 329.383C78.6807 314.747 93.4537 299.974 108.237 285.192C103.634 282.389 98.8337 279.481 94.6967 275.804ZM112.642 287.574C112.268 288.276 111.724 288.736 111.226 289.234C97.1157 303.347 83.0037 317.459 68.8917 331.571C68.5537 331.909 68.2367 332.269 67.8777 332.583C67.4237 332.979 67.3777 333.317 67.8507 333.752C68.5427 334.39 69.1897 335.075 69.6677 335.552C85.1577 320.062 100.55 304.67 115.967 289.252C114.958 288.743 113.801 288.159 112.642 287.574ZM341.835 55.0971C321.996 74.9351 302.218 94.7131 282.415 114.516C282.413 114.514 282.502 114.672 282.613 114.812C284.268 116.902 283.769 116.805 285.501 115.076C304.415 96.1781 323.319 77.2691 342.221 58.3581C342.68 57.8991 343.224 57.5061 343.525 56.8891C342.907 56.2351 342.294 55.5841 341.835 55.0971Z" fill="#010101"/>
<path fill-rule="evenodd" clip-rule="evenodd" d="M321.65 87.5071C324.156 84.8011 326.776 82.2101 329.461 79.6841C329.564 80.2341 329.917 80.6531 330.211 81.1001C342.098 99.2321 350.467 118.858 355.24 140.013C356.858 147.189 358.011 154.435 358.75 161.756C359.164 165.864 359.364 169.977 359.483 174.099C359.487 177.689 359.49 181.279 359.494 184.87C359.265 187.669 359.338 190.477 359.129 193.284C358.241 205.182 356.2 216.869 352.958 228.343C345.229 255.691 331.816 279.91 312.593 300.833C287.448 328.201 256.75 346.181 220.551 354.709C212.164 356.685 203.67 357.956 195.083 358.687C187.981 359.292 180.872 359.511 173.76 359.247C150.45 358.376 128.094 353.31 106.775 343.785C99.1767 340.39 91.8507 336.486 84.7947 332.074C84.2437 331.729 83.7337 331.279 83.0387 331.227C85.5997 328.563 88.1667 325.908 90.8987 323.418C91.3887 323.755 91.8637 324.116 92.3717 324.425C98.0497 327.871 103.91 330.975 109.955 333.729C130.788 343.219 152.681 348.128 175.532 348.842C181.631 349.032 187.72 348.761 193.806 348.284C202.463 347.606 211.011 346.268 219.443 344.228C249.292 337.003 275.289 322.697 297.425 301.444C312.998 286.491 325.222 269.123 334.153 249.456C342.823 230.364 347.7 210.323 348.903 189.409C349.322 182.128 349.245 174.831 348.729 167.539C348.241 160.613 347.367 153.743 346.02 146.942C341.901 126.137 334.151 106.772 322.76 88.8741C322.446 88.3821 322.25 87.7741 321.65 87.5071Z" fill="#27AECD"/>
<path fill-rule="evenodd" clip-rule="evenodd" d="M59.9087 280.024C57.0127 282.943 54.1187 285.863 51.2177 288.776C51.0977 288.896 50.9117 288.951 50.7577 289.037C48.2487 285.69 45.5487 282.494 43.0917 279.105C28.9967 259.661 19.4217 238.208 14.4367 214.715C12.6727 206.402 11.5937 198 11.0937 189.51C10.6457 181.912 10.6517 174.32 11.2717 166.747C14.1827 131.205 26.8157 99.5301 49.5287 72.0121C70.0537 47.1451 95.6977 29.5761 126.235 19.2061C136.044 15.8751 146.102 13.5531 156.371 12.1331C165.63 10.8531 174.927 10.2021 184.265 10.5031C220.873 11.6841 253.826 23.2541 282.995 45.4661C284.707 46.7701 286.355 48.1561 288.034 49.5031C285.111 52.6411 282.111 55.7011 278.927 58.5771C278.099 57.8911 277.287 57.1831 276.439 56.5231C251.809 37.3591 223.926 26.4601 192.854 23.7701C185.225 23.1091 177.573 23.1001 169.917 23.5991C162.629 24.0741 155.414 25.0041 148.268 26.4951C119.154 32.5691 93.8187 45.8991 72.2297 66.3081C57.5467 80.1901 46.0177 96.3721 37.6417 114.769C27.7757 136.439 23.1387 159.184 23.6417 182.997C23.8367 192.226 24.8017 201.354 26.6027 210.4C30.8907 231.926 39.4087 251.637 51.9837 269.613C54.4867 273.191 57.2367 276.577 59.9087 280.024Z" fill="#FDFEFE"/>
<path fill-rule="evenodd" clip-rule="evenodd" d="M276.304 61.2952C272.344 65.1902 268.384 69.0852 264.405 72.9992C254.799 66.4472 243.821 62.9442 232.784 59.6182C224.42 57.0972 215.879 55.3442 207.206 54.2942C198.156 53.1982 189.076 53.0252 179.987 53.7532C174.506 54.1922 169.024 54.6282 163.556 55.1992C154.121 56.1832 144.986 58.4632 136.137 61.8732C124.789 66.2472 114.392 72.2782 104.919 79.9002C91.0017 91.0982 80.1257 104.749 72.2827 120.776C66.8127 131.954 63.1827 143.728 61.3977 156.067C60.1427 164.746 59.7547 173.46 60.4677 182.183C62.4517 206.463 70.8597 228.178 86.7127 246.848C87.4867 247.759 88.2907 248.65 89.1357 249.494C89.6977 250.056 89.6617 250.487 89.0677 250.95C88.9267 251.059 88.8117 251.201 88.6847 251.328C80.3097 259.704 71.9347 268.08 63.5557 276.452C63.2627 276.745 62.9277 276.997 62.6137 277.267C62.1167 276.673 61.6027 276.091 61.1227 275.484C36.8287 244.741 25.5977 209.823 27.6167 170.667C28.0297 162.652 29.1377 154.736 30.8687 146.901C36.9357 119.453 49.6397 95.4892 68.8607 75.0222C84.4477 58.4242 102.888 45.9552 124.08 37.5762C138.7 31.7952 153.87 28.4382 169.535 27.3482C175.438 26.9372 181.351 26.8582 187.279 27.1772C194.216 27.5512 201.103 28.2712 207.922 29.5442C226.083 32.9352 243.095 39.3902 258.903 48.9682C264.995 52.6612 270.853 56.6922 276.304 61.2952Z" fill="#FEFEFE"/>
<path fill-rule="evenodd" clip-rule="evenodd" d="M103.006 311.284C109.129 305.14 115.26 299.006 121.361 292.84C121.967 292.227 122.437 292.158 123.229 292.49C132.342 296.313 141.77 299.111 151.468 300.995C158.636 302.388 165.866 303.288 173.157 303.721C176.741 303.933 180.334 303.918 183.912 304.117C186.643 304.269 189.369 304.675 192.115 304.683C209.206 304.738 225.396 300.872 240.695 293.317C260.354 283.607 276.065 269.439 287.956 251.037C296.962 237.099 302.793 221.915 305.462 205.546C308.771 185.252 306.994 165.382 300.076 146.014C297.111 137.713 293.144 129.884 288.228 122.557C287.69 121.755 287.723 121.319 288.405 120.642C295.411 113.689 302.383 106.702 309.365 99.725C309.489 99.601 309.641 99.505 309.781 99.395C310.051 99.79 310.34 100.172 310.586 100.58C321.8 119.164 328.808 139.204 331.474 160.761C332.719 170.827 332.891 180.905 332.208 191.015C331.623 199.686 330.256 208.23 328.137 216.648C321.417 243.345 308.396 266.548 289.241 286.295C279.947 295.875 269.523 304.054 258.045 310.882C235.261 324.437 210.576 331.472 184.121 332.313C173.696 332.644 163.34 331.781 153.061 329.956C135.945 326.918 119.851 321.069 104.727 312.524C104.116 312.179 103.397 311.948 103.006 311.284Z" fill="#FEFEFE"/>
<path fill-rule="evenodd" clip-rule="evenodd" d="M43.8227 309.645C42.8647 308.642 42.1697 307.916 41.3987 307.109C41.8137 306.677 42.2467 306.209 42.6967 305.758C59.2357 289.216 75.7767 272.678 92.3107 256.132C92.8967 255.545 93.8937 255.048 93.9017 254.287C93.9087 253.557 93.2027 252.812 92.7877 252.087C85.9317 240.093 80.6627 227.461 77.4337 214.005C75.5467 206.141 74.4027 198.174 73.9417 190.095C73.3697 180.074 74.0277 170.137 75.8007 160.274C78.1757 147.064 82.5437 134.54 88.9677 122.744C89.1567 122.397 89.2597 121.986 89.7557 121.714C89.7557 122.506 89.8087 123.24 89.7477 123.965C88.9947 132.905 90.6537 141.461 93.8837 149.754C97.2297 158.344 102.086 166.067 107.605 173.4C116.028 184.594 125.207 195.158 134.462 205.658C147.042 219.929 160.132 233.734 172.968 247.771C178.094 253.376 183.18 259.021 187.977 264.916C189.868 267.238 191.645 269.641 193.01 272.317C194.131 274.516 194.993 276.799 194.963 279.322C194.918 283.084 193.207 285.827 189.859 287.523C187.585 288.676 185.129 289.179 182.606 289.338C175.884 289.762 169.228 289.167 162.619 287.945C149.248 285.473 136.568 281.021 124.601 274.571C119.157 271.636 114.156 268.067 109.683 263.771C107.738 261.903 105.621 260.252 103.194 259.024C100.382 257.6 97.5507 257.721 94.6937 258.813C93.6127 259.226 92.6577 259.869 91.9857 260.811C91.1787 261.942 90.1837 262.884 89.2127 263.856C74.4507 278.621 59.6857 293.381 44.9317 308.154C44.5177 308.571 44.2207 309.103 43.8227 309.645Z" fill="#FEFEFE"/>
<path fill-rule="evenodd" clip-rule="evenodd" d="M323.146 36.6072C324.599 38.0302 325.831 39.2362 327.077 40.4582C307.337 60.1982 287.549 79.9862 267.782 99.7532C283.377 122.553 292.176 147.46 292.877 175.058C293.377 194.709 288.497 214.686 283.225 225.949C283.022 224.357 282.853 223.016 282.68 221.676C281.238 210.522 277.203 200.351 271.182 190.892C265.05 181.26 257.755 172.604 249.753 164.485C236.403 150.938 222.62 137.829 209.222 124.333C201.679 116.736 194.17 109.104 187.289 100.887C184.599 97.6742 182.112 94.3122 180.116 90.6132C178.806 88.1852 177.734 85.6742 177.293 82.9172C176.365 77.1252 178.756 72.8162 184.179 70.6272C187.789 69.1692 191.587 68.8412 195.429 68.7942C212.861 68.5802 228.756 73.5232 243.275 83.0642C245.771 84.7052 248.198 86.4512 250.676 88.1192C252.858 89.5872 255.12 90.9182 257.486 92.0772C262.659 94.6142 266.004 93.6712 269.986 89.9062C271.202 88.7562 272.358 87.5432 273.543 86.3582C289.656 70.2452 305.771 54.1312 321.88 38.0142C322.344 37.5482 322.761 37.0372 323.146 36.6072Z" fill="#FEFEFE"/>
<path fill-rule="evenodd" clip-rule="evenodd" d="M321.65 87.5071C322.25 87.7741 322.446 88.3821 322.758 88.8731C334.149 106.771 341.899 126.136 346.018 146.941C347.365 153.742 348.239 160.612 348.727 167.538C349.243 174.83 349.32 182.126 348.901 189.408C347.698 210.322 342.821 230.363 334.151 249.455C325.22 269.122 312.997 286.49 297.423 301.443C275.286 322.696 249.289 337.003 219.441 344.227C211.009 346.267 202.462 347.605 193.804 348.283C187.718 348.76 181.628 349.031 175.53 348.841C152.679 348.127 130.787 343.218 109.953 333.728C103.908 330.974 98.0477 327.871 92.3697 324.424C91.8617 324.115 91.3877 323.754 90.8967 323.417C93.9007 320.395 96.9047 317.372 99.9077 314.351C100.615 314.35 101.126 314.805 101.689 315.13C121.842 326.738 143.515 333.537 166.673 335.543C174.606 336.231 182.556 336.236 190.512 335.717C198.403 335.202 206.204 334.117 213.912 332.392C240.872 326.356 264.612 314.048 285.079 295.513C300.471 281.574 312.615 265.184 321.493 246.391C330.737 226.823 335.612 206.197 336.342 184.596C336.732 173.026 335.789 161.545 333.608 150.163C330.419 133.522 324.69 117.82 316.375 103.061C315.144 100.875 313.883 98.7071 312.635 96.5311C315.565 93.4481 318.58 90.4501 321.65 87.5071Z" fill="#FDFEFE"/>
<path fill-rule="evenodd" clip-rule="evenodd" d="M276.304 61.2951C270.854 56.6911 264.995 52.6611 258.903 48.9691C243.094 39.3911 226.083 32.9361 207.922 29.5451C201.104 28.2721 194.216 27.5521 187.279 27.1781C181.351 26.8591 175.438 26.9381 169.535 27.3491C153.87 28.4391 138.701 31.7961 124.08 37.5771C102.889 45.9561 84.4477 58.4251 68.8607 75.0231C49.6397 95.4911 36.9357 119.454 30.8687 146.902C29.1377 154.737 28.0297 162.653 27.6167 170.668C25.5977 209.824 36.8287 244.742 61.1227 275.485C61.6027 276.092 62.1167 276.674 62.6137 277.268C61.8007 278.277 60.8517 279.15 59.9087 280.025C57.2377 276.576 54.4877 273.19 51.9847 269.612C39.4097 251.636 30.8917 231.925 26.6037 210.399C24.8017 201.353 23.8367 192.224 23.6427 182.996C23.1397 159.183 27.7767 136.438 37.6427 114.768C46.0177 96.3711 57.5477 80.1891 72.2307 66.3071C93.8197 45.8971 119.155 32.5671 148.269 26.4941C155.415 25.0031 162.63 24.0731 169.918 23.5981C177.574 23.0991 185.226 23.1091 192.855 23.7691C223.927 26.4591 251.81 37.3581 276.44 56.5221C277.289 57.1831 278.1 57.8901 278.928 58.5761C278.197 59.6231 277.221 60.4301 276.304 61.2951Z" fill="#2BAFCE"/>
<path fill-rule="evenodd" clip-rule="evenodd" d="M312.636 96.5312C313.884 98.7073 315.145 100.875 316.376 103.061C324.691 117.82 330.42 133.522 333.609 150.163C335.791 161.544 336.733 173.026 336.343 184.596C335.614 206.197 330.739 226.823 321.494 246.391C312.616 265.184 300.472 281.574 285.08 295.513C264.613 314.048 240.873 326.356 213.913 332.392C206.205 334.118 198.403 335.203 190.513 335.717C182.557 336.237 174.606 336.231 166.674 335.543C143.515 333.537 121.842 326.738 101.69 315.13C101.127 314.805 100.616 314.35 99.9087 314.351C100.881 313.265 101.888 312.217 103.007 311.284C103.398 311.949 104.116 312.18 104.728 312.526C119.852 321.071 135.946 326.92 153.062 329.958C163.341 331.783 173.696 332.646 184.122 332.315C210.577 331.474 235.262 324.439 258.046 310.884C269.525 304.056 279.948 295.877 289.242 286.297C308.396 266.55 321.418 243.347 328.138 216.65C330.257 208.232 331.624 199.688 332.209 191.017C332.892 180.907 332.72 170.829 331.475 160.763C328.809 139.205 321.801 119.166 310.587 100.582C310.341 100.174 310.052 99.7913 309.782 99.3973C310.626 98.3353 311.583 97.3852 312.636 96.5312Z" fill="#2BAFCE"/>
<path fill-rule="evenodd" clip-rule="evenodd" d="M329.488 42.947C332.717 46.077 336.021 49.279 339.156 52.318C319.399 72.074 299.72 91.753 279.93 111.543C277.078 108.365 273.81 105.01 270.407 102.028C290.153 82.282 309.839 62.596 329.488 42.947Z" fill="#FEFEFE"/>
<path fill-rule="evenodd" clip-rule="evenodd" d="M94.6967 275.804C98.8337 279.481 103.635 282.389 108.237 285.192C93.4537 299.974 78.6807 314.748 64.0447 329.383C60.3807 325.721 56.4277 321.77 52.5777 317.922C66.4487 304.051 80.5117 289.989 94.6967 275.804Z" fill="#FDFEFE"/>
<path fill-rule="evenodd" clip-rule="evenodd" d="M112.642 287.574C113.801 288.159 114.958 288.743 115.967 289.252C100.55 304.67 85.1577 320.062 69.6677 335.552C69.1897 335.075 68.5427 334.39 67.8507 333.752C67.3777 333.317 67.4247 332.98 67.8777 332.583C68.2367 332.27 68.5537 331.909 68.8917 331.571C83.0037 317.459 97.1157 303.347 111.226 289.234C111.724 288.736 112.268 288.276 112.642 287.574Z" fill="#FDFEFE"/>
<path fill-rule="evenodd" clip-rule="evenodd" d="M341.835 55.0972C342.294 55.5842 342.907 56.2352 343.524 56.8892C343.223 57.5062 342.679 57.8982 342.22 58.3582C323.319 77.2692 304.414 96.1782 285.5 115.076C283.769 116.805 284.268 116.902 282.612 114.812C282.501 114.672 282.412 114.514 282.414 114.516C302.218 94.7132 321.996 74.9352 341.835 55.0972Z" fill="#FDFEFE"/>
</svg>
