<svg width="481" height="481" viewBox="0 0 481 481" fill="none" xmlns="http://www.w3.org/2000/svg">
<path d="M432.586 108.318C458.36 145.834 473.444 191.266 473.444 240.222C473.444 369.027 369.027 473.444 240.222 473.444C193.053 473.444 149.154 459.441 112.456 435.366" stroke="#25ADCD" stroke-width="14" stroke-miterlimit="10"/>
<path d="M65.344 394.532C29.034 353.414 7 299.391 7 240.222C7 111.417 111.417 7 240.222 7C299.999 7 354.525 29.49 395.797 66.47" stroke="#25ADCD" stroke-width="14" stroke-miterlimit="10"/>
<path d="M413.94 128.267C434.774 160.528 446.866 198.963 446.866 240.223C446.866 354.349 354.348 446.867 240.222 446.867C200.421 446.867 163.248 435.615 131.711 416.118" stroke="#25ADCD" stroke-width="5" stroke-miterlimit="10"/>
<path d="M83.4 374.794C52.345 338.638 33.579 291.621 33.579 240.222C33.579 126.096 126.097 33.5781 240.223 33.5781C293.267 33.5781 341.643 53.5641 378.232 86.4161" stroke="#25ADCD" stroke-width="5" stroke-miterlimit="10"/>
<path d="M381.293 126.71L336.123 139.494C333.282 131.965 329.092 124.65 323.552 117.548C318.154 110.303 310.768 104.337 301.393 99.65C292.018 94.9625 280.015 92.6187 265.384 92.6187C245.356 92.6187 228.665 97.2352 215.313 106.468C202.103 115.559 195.498 127.136 195.498 141.198C195.498 153.698 200.043 163.57 209.134 170.815C218.225 178.059 232.43 184.096 251.748 188.926L300.327 200.857C329.589 207.96 351.393 218.826 365.739 233.457C380.086 247.945 387.259 266.624 387.259 289.494C387.259 308.244 381.861 325.005 371.066 339.778C360.413 354.551 345.498 366.198 326.322 374.721C307.146 383.244 284.844 387.505 259.418 387.505C226.038 387.505 198.41 380.261 176.535 365.772C154.66 351.284 140.81 330.119 134.986 302.278L182.714 290.346C187.259 307.96 195.853 321.17 208.495 329.977C221.279 338.784 237.969 343.187 258.566 343.187C282.004 343.187 300.611 338.215 314.39 328.272C328.31 318.187 335.271 306.113 335.271 292.051C335.271 280.687 331.293 271.17 323.339 263.499C315.384 255.687 303.168 249.863 286.691 246.028L232.146 233.244C202.174 226.141 180.157 215.133 166.094 200.218C152.174 185.161 145.214 166.34 145.214 143.755C145.214 125.289 150.398 108.954 160.768 94.7494C171.279 80.5449 185.555 69.3943 203.594 61.2977C221.776 53.2011 242.373 49.1528 265.384 49.1528C297.771 49.1528 323.197 56.2551 341.663 70.4596C360.271 84.6642 373.481 103.414 381.293 126.71Z" fill="black" stroke="black" stroke-miterlimit="10"/>
<path d="M125.333 340.207C125.333 340.207 124.27 339.215 122.334 337.31C121.363 336.36 120.174 335.19 118.841 333.714C117.497 332.258 115.889 330.591 114.299 328.598C113.483 327.608 112.623 326.566 111.72 325.472C110.836 324.363 109.975 323.158 109.039 321.919C107.118 319.47 105.343 316.628 103.319 313.638C99.493 307.542 95.578 300.35 92.085 292.099C88.602 283.851 85.556 274.542 83.415 264.405C83.15 263.136 82.882 261.859 82.613 260.573C82.381 259.281 82.197 257.972 81.986 256.659C81.784 255.342 81.58 254.017 81.375 252.684C81.225 251.344 81.074 249.997 80.922 248.642C80.785 247.285 80.588 245.922 80.501 244.546C80.419 243.169 80.337 241.785 80.254 240.394L80.135 238.3L80.105 237.775L80.099 237.042L80.086 236.042C80.07 234.707 80.053 233.366 80.037 232.02L80.012 229.996L80.0031 228.975L80.045 227.873C80.109 226.4 80.173 224.922 80.237 223.439C80.333 221.969 80.345 220.431 80.517 219C80.663 217.549 80.81 216.093 80.958 214.633C81.197 211.702 81.6791 208.786 82.1281 205.845C82.5271 202.894 83.228 199.986 83.847 197.047C84.416 194.095 85.29 191.206 86.051 188.275L86.64 186.081L87.332 183.914L88.769 179.587C89.223 178.134 89.791 176.72 90.343 175.299L92.001 171.034C93.148 168.206 94.458 165.443 95.687 162.644C101.01 151.641 107.529 141.217 115.048 131.855C116.944 129.527 118.784 127.172 120.81 124.993C121.811 123.896 122.81 122.802 123.807 121.71C124.806 120.622 125.882 119.612 126.912 118.566C127.952 117.531 128.989 116.499 130.022 115.47C131.1 114.489 132.174 113.51 133.244 112.535C134.317 111.565 135.379 110.59 136.467 109.655C137.584 108.754 138.697 107.857 139.806 106.963C148.661 99.8099 157.982 93.9189 167.212 89.2239C168.368 88.6439 169.517 88.0679 170.657 87.4949C171.806 86.9429 172.977 86.4529 174.121 85.9359C176.424 84.9319 178.648 83.8659 180.949 83.0689C182.085 82.6439 183.211 82.2229 184.327 81.8049C185.441 81.3869 186.54 80.9639 187.662 80.6279C189.891 79.9209 192.064 79.2069 194.206 78.5609C202.849 76.1659 210.897 74.6889 218.049 73.8499C219.835 73.6299 221.583 73.5449 223.252 73.3959C224.927 73.2769 226.527 73.0989 228.083 73.0829C231.193 73.0459 234.022 72.9149 236.586 73.0009C239.15 73.1009 241.429 73.2049 243.404 73.3279C245.38 73.4709 247.057 73.6999 248.411 73.8299C249.765 73.9669 250.8 74.1129 251.496 74.1959C252.191 74.2839 252.551 74.3289 252.551 74.3289C252.551 74.3289 252.193 74.3919 251.498 74.5149C250.805 74.6329 249.776 74.8319 248.44 75.0369C247.105 75.2659 245.459 75.4799 243.541 75.8579C241.625 76.2769 239.431 76.7209 236.987 77.2019C234.548 77.7329 231.873 78.4389 228.972 79.1229C228.245 79.2829 227.514 79.5099 226.768 79.7319C226.022 79.9449 225.263 80.1629 224.489 80.3849C222.947 80.8429 221.34 81.2459 219.712 81.7909C216.468 82.9339 212.985 83.9309 209.447 85.3999C205.861 86.6949 202.201 88.3319 198.394 89.9859C196.53 90.9189 194.614 91.8169 192.675 92.7539C191.696 93.1979 190.744 93.7289 189.78 94.2539C188.818 94.7759 187.846 95.3029 186.867 95.8339C184.894 96.8589 182.965 98.0459 180.992 99.2099C180.011 99.8009 179.006 100.364 178.026 100.987C177.057 101.628 176.082 102.273 175.1 102.922C167.23 108.068 159.412 114.139 151.972 121.059C151.046 121.927 150.117 122.799 149.183 123.674C148.287 124.586 147.386 125.502 146.483 126.421C145.58 127.337 144.672 128.256 143.763 129.178C142.897 130.141 142.029 131.108 141.157 132.078C140.296 133.056 139.388 133.995 138.558 135.008C137.73 136.022 136.901 137.039 136.069 138.059C134.338 140.04 132.786 142.182 131.179 144.289C124.895 152.822 119.199 161.994 114.615 171.715C109.933 181.387 106.314 191.551 103.622 201.795C102.988 204.366 102.299 206.918 101.833 209.505C101.297 212.078 100.72 214.636 100.376 217.218C100.174 218.506 99.973 219.789 99.772 221.068C99.541 222.361 99.485 223.572 99.331 224.824C99.205 226.065 99.054 227.302 98.904 228.536L98.791 229.461L98.724 230.467L98.597 232.487C98.513 233.831 98.428 235.169 98.345 236.502L98.282 237.5L98.266 237.749L98.258 237.874C98.254 237.966 98.259 237.52 98.256 237.765L98.248 238.236L98.215 240.115C98.172 242.617 98.086 245.101 98.164 247.556C98.181 248.786 98.198 250.01 98.215 251.225C98.284 252.44 98.353 253.647 98.422 254.847C98.498 256.048 98.5471 257.246 98.6431 258.432C98.7531 259.617 98.862 260.794 98.97 261.964C99.876 271.327 101.504 280.152 103.554 288.208C105.589 296.272 108.048 303.564 110.507 309.969C111.82 313.128 113.003 316.136 114.269 318.839C114.892 320.195 115.455 321.524 116.059 322.757C116.668 323.991 117.248 325.169 117.8 326.286C118.873 328.556 119.977 330.467 120.863 332.213C121.745 333.952 122.592 335.403 123.28 336.572C124.64 338.927 125.333 340.207 125.333 340.207Z" fill="black"/>
<path d="M122.499 337.384L48.989 410.894" stroke="black" stroke-width="8" stroke-miterlimit="10"/>
<path d="M46.269 407.956L95.8951 457.582" stroke="black" stroke-width="8" stroke-miterlimit="10"/>
<path d="M59.208 423.863L128.802 354.269" stroke="black" stroke-width="16" stroke-miterlimit="10"/>
<path d="M147.906 382.895L84.323 446.478" stroke="black" stroke-width="6" stroke-miterlimit="10"/>
<path d="M163.591 384.23L93.5911 454.23" stroke="black" stroke-width="8" stroke-miterlimit="10"/>
<path d="M246.748 406.912C246.748 406.912 248.161 406.566 250.815 405.99C252.143 405.715 253.788 405.369 255.669 404.853C257.557 404.335 259.715 403.869 262.116 403.14C263.314 402.796 264.576 402.437 265.9 402.058C267.218 401.677 268.582 401.203 270.004 400.751C272.858 399.874 275.88 398.73 279.102 397.581C285.498 395.101 292.552 392.024 299.893 388.114C307.239 384.221 314.87 379.499 322.414 373.882C323.353 373.175 324.299 372.466 325.251 371.751C326.194 371.026 327.114 370.257 328.055 369.507C328.99 368.751 329.93 367.991 330.876 367.226C331.789 366.421 332.706 365.613 333.629 364.8C335.5 363.208 337.282 361.476 339.107 359.763L340.478 358.476L340.822 358.154C341 357.988 340.675 358.291 340.74 358.226L340.827 358.136L341.001 357.958L341.698 357.239C342.629 356.282 343.563 355.321 344.503 354.356L345.913 352.905L346.613 352.178L347.223 351.473C348.036 350.534 348.851 349.59 349.686 348.662C350.508 347.707 351.369 346.853 352.171 345.812C352.984 344.804 353.8 343.794 354.617 342.779C356.3 340.791 357.806 338.644 359.353 336.519C360.957 334.435 362.384 332.212 363.863 330.015C369.642 321.138 374.742 311.63 378.761 301.665C382.883 291.739 385.851 281.358 387.951 270.972C388.431 268.367 388.976 265.777 389.281 263.165C389.477 261.862 389.674 260.565 389.869 259.271C390.062 257.976 390.148 256.672 390.294 255.377C390.427 254.08 390.56 252.787 390.692 251.499C390.763 250.206 390.836 248.916 390.907 247.632C390.98 246.346 391.054 245.064 391.128 243.787C391.149 242.508 391.171 241.233 391.192 239.964C391.32 229.805 390.566 219.935 389.091 210.648C388.912 209.484 388.736 208.328 388.559 207.18C388.363 206.035 388.105 204.913 387.883 203.789C387.42 201.546 387.004 199.32 386.439 197.169C386.174 196.087 385.913 195.014 385.653 193.95C385.394 192.884 385.148 191.822 384.82 190.798C384.211 188.733 383.59 186.71 383.028 184.702C381.697 180.771 380.451 176.96 379.002 173.434C377.714 169.826 376.112 166.576 374.78 163.406C374.091 161.834 373.308 160.373 372.613 158.923C372.258 158.201 371.908 157.491 371.566 156.796C371.229 156.095 370.907 155.4 370.537 154.754C369.095 152.146 367.822 149.69 366.576 147.526C365.291 145.392 364.145 143.468 363.169 141.768C362.16 140.094 361.214 138.73 360.486 137.588C359.741 136.461 359.198 135.566 358.819 134.972C358.443 134.375 358.25 134.067 358.25 134.067C358.25 134.067 358.524 134.303 359.057 134.759C359.586 135.219 360.39 135.887 361.402 136.799C362.408 137.714 363.704 138.802 365.137 140.171C366.555 141.552 368.162 143.169 369.959 145.002C371.745 146.843 373.549 149.027 375.61 151.356C376.643 152.519 377.587 153.824 378.624 155.144C379.635 156.481 380.746 157.833 381.782 159.304C385.966 165.165 390.277 172.12 394.308 180.132C395.268 182.153 396.199 184.242 397.172 186.368C397.678 187.425 398.103 188.523 398.541 189.629C398.981 190.736 399.426 191.854 399.874 192.981C400.829 195.221 401.533 197.584 402.336 199.964C402.723 201.158 403.146 202.355 403.509 203.577C403.852 204.806 404.196 206.044 404.543 207.29C407.265 217.281 409.161 228.143 409.811 239.508C409.893 240.929 409.976 242.357 410.059 243.79C410.098 245.224 410.088 246.665 410.091 248.112C410.088 249.56 410.084 251.012 410.081 252.47C410.014 253.927 409.945 255.388 409.877 256.853C409.794 258.319 409.769 259.795 409.634 261.265C409.494 262.736 409.355 264.212 409.214 265.691C408.961 268.654 408.452 271.599 408.001 274.568C406.117 286.427 402.773 298.259 398.198 309.593C396.951 312.382 395.783 315.208 394.459 317.958L392.413 322.052C391.731 323.415 391.065 324.784 390.294 326.097L388.054 330.068L386.913 332.037L385.684 333.949C384.024 336.48 382.471 339.068 380.666 341.472C378.904 343.906 377.221 346.378 375.303 348.656C373.427 350.965 371.59 353.281 369.579 355.426C368.597 356.518 367.616 357.604 366.64 358.686C365.696 359.776 364.564 360.819 363.54 361.875C362.483 362.92 361.432 363.961 360.384 364.996L359.596 365.767L358.833 366.447L357.317 367.789C356.308 368.682 355.303 369.568 354.303 370.453L353.554 371.117L353.007 371.603L352.598 371.933L350.967 373.251C349.881 374.124 348.8 374.993 347.725 375.858C346.648 376.717 345.505 377.487 344.409 378.297C343.304 379.094 342.204 379.889 341.11 380.676C339.986 381.42 338.868 382.158 337.756 382.895C336.64 383.62 335.547 384.364 334.435 385.059C333.301 385.723 332.175 386.383 331.057 387.039C322.11 392.264 313.167 396.26 304.717 399.219C296.258 402.174 288.301 404.106 281.215 405.365C277.64 405.875 274.343 406.469 271.238 406.691C269.691 406.83 268.22 407.002 266.804 407.091C265.388 407.157 264.038 407.22 262.757 407.28C260.212 407.44 257.897 407.368 255.915 407.352C253.927 407.356 252.261 407.26 250.905 407.18C248.197 407.033 246.748 406.912 246.748 406.912Z" fill="black"/>
<path d="M351.927 114.042L425.437 40.5327" stroke="black" stroke-width="21" stroke-miterlimit="10"/>
<path d="M418.645 32.4878L466.125 80.4388" stroke="black" stroke-width="4" stroke-miterlimit="10"/>
<path d="M438.733 55.3516L358.929 135.155" stroke="black" stroke-width="4" stroke-miterlimit="10"/>
<path d="M374.143 152.673L455.5 71.3149" stroke="black" stroke-width="4" stroke-miterlimit="10"/>
<path d="M380.313 160.594L463.773 77.1338" stroke="black" stroke-width="8" stroke-miterlimit="10"/>
</svg>
